<?xml version="1.0" standalone="no"?>
<!DOCTYPE svg PUBLIC "-//W3C//DTD SVG 20010904//EN"
 "http://www.w3.org/TR/2001/REC-SVG-20010904/DTD/svg10.dtd">
<svg version="1.0" xmlns="http://www.w3.org/2000/svg"
 width="260.000000pt" height="260.000000pt" viewBox="0 0 260.000000 260.000000"
 preserveAspectRatio="xMidYMid meet">
<metadata>
Created by potrace 1.11, written by Peter Selinger 2001-2013
</metadata>
<g transform="translate(0.000000,260.000000) scale(0.100000,-0.100000)"
fill="#000000" stroke="none">
<path d="M1246 2540 c-15 -5 -37 -17 -49 -27 -11 -10 -94 -169 -185 -353 -91
-184 -166 -336 -168 -338 -2 -3 -73 -14 -234 -36 -61 -9 -121 -18 -145 -22
-10 -2 -35 -6 -55 -9 -203 -27 -270 -38 -302 -46 -45 -12 -95 -66 -104 -115
-13 -71 9 -110 131 -229 62 -60 183 -178 269 -262 l156 -152 -6 -41 c-3 -23
-7 -47 -8 -53 -10 -47 -23 -118 -32 -177 -3 -19 -12 -71 -19 -115 -8 -44 -17
-98 -20 -120 -4 -22 -8 -47 -10 -55 -2 -8 -6 -28 -9 -45 -2 -16 -8 -50 -12
-75 -15 -90 7 -148 71 -185 77 -45 103 -37 435 143 36 19 130 68 209 110 l143
75 37 -21 c20 -11 90 -48 156 -82 66 -34 156 -82 200 -105 280 -150 303 -159
369 -131 76 32 112 107 92 196 -3 14 -12 66 -20 115 -8 50 -22 128 -30 175 -8
47 -17 101 -20 120 -3 19 -8 46 -11 60 -2 13 -7 42 -11 65 -3 22 -9 58 -14 80
-5 22 -10 45 -10 51 0 11 124 136 411 416 64 62 124 128 133 147 22 41 16 113
-12 150 -37 50 -63 60 -202 81 -74 11 -151 23 -170 26 -19 2 -69 9 -110 15
-83 11 -123 17 -160 24 -14 2 -43 7 -65 10 -121 16 -90 -24 -275 352 -180 367
-191 382 -273 389 -23 2 -55 -1 -71 -6z"/>
</g>
</svg>
