<?xml version="1.0"?>
<!-- Generated by TinyGraphs: http://www.tinygraphs.com/ - public domain image -->
<svg width="220" height="220"
     xmlns="http://www.w3.org/2000/svg"
     xmlns:xlink="http://www.w3.org/1999/xlink">
<polygon points="44,36 12,54 44,72" style="fill:rgb(135,173,22)" />
<polygon points="172,36 204,54 172,72" style="fill:rgb(135,173,22)" />
<polygon points="12,54 44,72 12,90" style="fill:rgb(235,199,23)" />
<polygon points="204,54 172,72 204,90" style="fill:rgb(235,199,23)" />
<polygon points="44,72 12,90 44,108" style="fill:rgb(254,251,230)" />
<polygon points="172,72 204,90 172,108" style="fill:rgb(254,251,230)" />
<polygon points="12,90 44,108 12,126" style="fill:rgb(254,251,230)" />
<polygon points="204,90 172,108 204,126" style="fill:rgb(254,251,230)" />
<polygon points="44,108 12,126 44,144" style="fill:rgb(177,192,24)" />
<polygon points="172,108 204,126 172,144" style="fill:rgb(177,192,24)" />
<polygon points="12,126 44,144 12,162" style="fill:rgb(135,173,22)" />
<polygon points="204,126 172,144 204,162" style="fill:rgb(135,173,22)" />
<polygon points="44,144 12,162 44,180" style="fill:rgb(135,173,22)" />
<polygon points="172,144 204,162 172,180" style="fill:rgb(135,173,22)" />
<polygon points="12,162 44,180 12,198" style="fill:rgb(255,255,255); fill-opacity:0" />
<polygon points="204,162 172,180 204,198" style="fill:rgb(255,255,255); fill-opacity:0" />
<polygon points="44,0 76,18 44,36" style="fill:rgb(255,255,255); fill-opacity:0" />
<polygon points="172,0 140,18 172,36" style="fill:rgb(255,255,255); fill-opacity:0" />
<polygon points="76,18 44,36 76,54" style="fill:rgb(177,192,24)" />
<polygon points="140,18 172,36 140,54" style="fill:rgb(177,192,24)" />
<polygon points="44,36 76,54 44,72" style="fill:rgb(235,199,23)" />
<polygon points="172,36 140,54 172,72" style="fill:rgb(235,199,23)" />
<polygon points="76,54 44,72 76,90" style="fill:rgb(235,199,23)" />
<polygon points="140,54 172,72 140,90" style="fill:rgb(235,199,23)" />
<polygon points="44,72 76,90 44,108" style="fill:rgb(254,251,230)" />
<polygon points="172,72 140,90 172,108" style="fill:rgb(254,251,230)" />
<polygon points="76,90 44,108 76,126" style="fill:rgb(135,173,22)" />
<polygon points="140,90 172,108 140,126" style="fill:rgb(135,173,22)" />
<polygon points="44,108 76,126 44,144" style="fill:rgb(135,173,22)" />
<polygon points="172,108 140,126 172,144" style="fill:rgb(135,173,22)" />
<polygon points="76,126 44,144 76,162" style="fill:rgb(135,173,22)" />
<polygon points="140,126 172,144 140,162" style="fill:rgb(135,173,22)" />
<polygon points="44,144 76,162 44,180" style="fill:rgb(177,192,24)" />
<polygon points="172,144 140,162 172,180" style="fill:rgb(177,192,24)" />
<polygon points="76,162 44,180 76,198" style="fill:rgb(235,199,23)" />
<polygon points="140,162 172,180 140,198" style="fill:rgb(235,199,23)" />
<polygon points="108,0 76,18 108,36" style="fill:rgb(177,192,24)" />
<polygon points="108,0 140,18 108,36" style="fill:rgb(177,192,24)" />
<polygon points="76,18 108,36 76,54" style="fill:rgb(135,173,22)" />
<polygon points="140,18 108,36 140,54" style="fill:rgb(135,173,22)" />
<polygon points="108,36 76,54 108,72" style="fill:rgb(235,199,23)" />
<polygon points="108,36 140,54 108,72" style="fill:rgb(235,199,23)" />
<polygon points="76,54 108,72 76,90" style="fill:rgb(254,251,230)" />
<polygon points="140,54 108,72 140,90" style="fill:rgb(254,251,230)" />
<polygon points="108,72 76,90 108,108" style="fill:rgb(135,173,22)" />
<polygon points="108,72 140,90 108,108" style="fill:rgb(135,173,22)" />
<polygon points="76,90 108,108 76,126" style="fill:rgb(177,192,24)" />
<polygon points="140,90 108,108 140,126" style="fill:rgb(177,192,24)" />
<polygon points="108,108 76,126 108,144" style="fill:rgb(135,173,22)" />
<polygon points="108,108 140,126 108,144" style="fill:rgb(135,173,22)" />
<polygon points="76,126 108,144 76,162" style="fill:rgb(135,173,22)" />
<polygon points="140,126 108,144 140,162" style="fill:rgb(135,173,22)" />
<polygon points="108,144 76,162 108,180" style="fill:rgb(235,199,23)" />
<polygon points="108,144 140,162 108,180" style="fill:rgb(235,199,23)" />
<polygon points="76,162 108,180 76,198" style="fill:rgb(254,251,230)" />
<polygon points="140,162 108,180 140,198" style="fill:rgb(254,251,230)" />
<polygon points="108,180 76,198 108,216" style="fill:rgb(177,192,24)" />
<polygon points="108,180 140,198 108,216" style="fill:rgb(177,192,24)" />
<polygon points="76,198 108,216 76,234" style="fill:rgb(255,255,255); fill-opacity:0" />
<polygon points="140,198 108,216 140,234" style="fill:rgb(255,255,255); fill-opacity:0" />
</svg>
